# xmcd
#
# Track frame offsets:
#	182
#	11407
#	21370
#	31712
#	43287
#	56892
#	67697
#	79842
#	91247
#	101550
#
# Disc length: 1509
#
# Revision: 3
# Processed by: cddbd v1.5.1PL0 Copyright (c) Steve Scherf et al.
# Submitted via: audiograbber 1.83.01
# Normalized: r2:DSETVAR1
#
DISCID=7405e30a
DTITLE=Various Artist - The 101 Greatest Country Hits Vol 5:  Country Memories
DYEAR=1900
DGENRE=
TTITLE0=Stonewall Jackson - Waterloo
TTITLE1=Hank Locklin - Please Help Me, I'm Falling (In Love With You)
TTITLE2=Faron Young - Hello Walls
TTITLE3=Del Wood - Down Yonder
TTITLE4=Jimmy Dean - Big Bad John
TTITLE5=Ferlin Husky - Wings of a Dove
TTITLE6=Hank Thompson - The Wild Side of Life
TTITLE7=Kitty Wells - It Wasn't God Who Made Honky Tonk Angels
TTITLE8=Warner Mack - The Bridge Washed Out
TTITLE9=Henson Cargill - Skip A Rope
EXTD=
EXTT0=
EXTT1=
EXTT2=
EXTT3=
EXTT4=
EXTT5=
EXTT6=
EXTT7=
EXTT8=
EXTT9=
PLAYORDER=
